HIERARCHY
ROOT Hips
{
 OFFSET 0.000000 0.000000 0.000000
 CHANNELS 6 Xposition Yposition Zposition Yrotation Xrotation Zrotation
 JOINT Chest
 {
  OFFSET 0.000000 9.585900 0.002600
  CHANNELS 3 Yrotation Xrotation Zrotation
  JOINT Chest2
  {
   OFFSET 0.000000 9.601200 -0.005300
   CHANNELS 3 Yrotation Xrotation Zrotation
   JOINT Chest3
   {
    OFFSET 0.000000 9.561800 0.000000
    CHANNELS 3 Yrotation Xrotation Zrotation
    JOINT Chest4
    {
     OFFSET 0.000000 9.552100 0.000000
     CHANNELS 3 Yrotation Xrotation Zrotation
     JOINT Neck
     {
      OFFSET 0.000000 14.453000 0.000000
      CHANNELS 3 Yrotation Xrotation Zrotation
      JOINT Head
      {
       OFFSET 0.000000 8.936500 -0.011300
       CHANNELS 3 Yrotation Xrotation Zrotation
       End Site
       {
        OFFSET 0.000000 17.073600 -0.006000
       }
      }
     }
     JOINT RightCollar
     {
      OFFSET -2.921100 9.558500 0.000000
      CHANNELS 3 Yrotation Xrotation Zrotation
      JOINT RightShoulder
      {
       OFFSET -13.519700 0.000000 0.000000
       CHANNELS 3 Yrotation Xrotation Zrotation
       JOINT RightElbow
       {
        OFFSET 0.000000 -29.696600 0.000000
        CHANNELS 3 Yrotation Xrotation Zrotation
        JOINT RightWrist
        {
         OFFSET 0.000000 -24.004700 0.000000
         CHANNELS 3 Yrotation Xrotation Zrotation
         End Site
         {
          OFFSET 0.000000 -17.728500 0.000000
         }
        }
       }
      }
     }
     JOINT LeftCollar
     {
      OFFSET 2.921100 9.558500 0.000000
      CHANNELS 3 Yrotation Xrotation Zrotation
      JOINT LeftShoulder
      {
       OFFSET 13.519700 0.000000 0.000000
       CHANNELS 3 Yrotation Xrotation Zrotation
       JOINT LeftElbow
       {
        OFFSET 0.000000 -29.696600 0.000000
        CHANNELS 3 Yrotation Xrotation Zrotation
        JOINT LeftWrist
        {
         OFFSET 0.000000 -24.004700 0.000000
         CHANNELS 3 Yrotation Xrotation Zrotation
         End Site
         {
          OFFSET 0.000000 -17.728500 0.000000
         }
        }
       }
      }
     }
    }
   }
  }
 }
 JOINT RightHip
 {
  OFFSET -7.771700 -0.012900 -0.001300
  CHANNELS 3 Yrotation Xrotation Zrotation
  JOINT RightKnee
  {
   OFFSET 0.000000 -40.869800 0.001200
   CHANNELS 3 Yrotation Xrotation Zrotation
   JOINT RightAnkle
   {
    OFFSET 0.000000 -39.717900 0.002100
    CHANNELS 3 Yrotation Xrotation Zrotation
    JOINT RightToe
    {
     OFFSET 0.000000 -4.965400 11.033500
     CHANNELS 3 Yrotation Xrotation Zrotation
     End Site
     {
      OFFSET 0.000000 -1.423100 5.872300
     }
    }
   }
  }
 }
 JOINT LeftHip
 {
  OFFSET 7.771700 -0.012900 -0.001300
  CHANNELS 3 Yrotation Xrotation Zrotation
  JOINT LeftKnee
  {
   OFFSET 0.000000 -40.869800 0.001200
   CHANNELS 3 Yrotation Xrotation Zrotation
   JOINT LeftAnkle
   {
    OFFSET 0.000000 -39.717900 0.002100
    CHANNELS 3 Yrotation Xrotation Zrotation
    JOINT LeftToe
    {
     OFFSET 0.000000 -4.965400 11.033500
     CHANNELS 3 Yrotation Xrotation Zrotation
     End Site
     {
      OFFSET 0.000000 -1.423100 5.872300
     }
    }
   }
  }
 }
}
MOTION
Frames: 9
Frame Time: 0.008333
0.000000 85.388000 0.000000 0.000000 -5.767877 0.000000 0.000000 11.653817 0.000000 0.000000 -5.885947 0.000000 0.000000 -0.000000 0.000000 0.000000 -0.000000 0.000000 0.000000 12.528835 0.000000 0.000000 0.711642 0.000000 0.000000 -0.000000 0.000000 0.000000 0.000000 -90.000000 0.000000 -2.309062 0.000000 0.000000 2.309062 0.000000 0.000000 -0.000000 0.000000 0.000000 -0.000000 90.000000 0.000000 -2.309062 0.000000 0.000000 2.309062 0.000000 0.000000 8.520406 0.000000 0.000000 1.905762 0.000000 -0.000000 -4.658285 0.000000 0.000000 -0.000000 0.000000 0.000000 8.520406 0.000000 0.000000 1.905762 0.000000 -0.000000 -4.658285 0.000000 0.000000 -0.000000 0.000000
-45.470185 57.859027 11.823357 179.057154 -51.112141 -3.668846 3.479451 22.511306 2.828261 1.755300 12.832170 1.439444 2.278326 16.062742 1.876551 1.769341 12.856477 1.440498 1.753415 13.744808 5.498743 1.113519 -10.309377 9.705673 2.280813 4.040851 1.200773 -3.094127 -16.872365 -9.584698 -76.470650 -64.995769 121.113051 13.551281 15.045919 -19.073594 -10.097985 0.603018 -0.893850 3.295089 -13.232470 13.349994 42.159574 -36.287439 -105.008570 8.488733 8.867734 7.269567 4.198496 -20.264167 -3.210796 -34.681190 73.621980 -38.958339 5.448011 -14.373223 11.819176 0.014568 -0.042912 0.016894 -7.783550 -17.930836 5.176659 86.611995 82.019560 85.506396 0.870149 -21.811518 -17.952809 0.023557 0.089602 0.015360
-45.476959 57.861672 11.828805 179.077384 -51.093445 -3.668328 3.471949 22.515295 2.814516 1.769997 12.859488 1.441618 2.290082 16.088244 1.878671 1.761735 12.835696 1.443128 1.822398 13.758806 5.539049 1.235836 -10.267463 9.746447 2.225148 4.089428 1.165377 -3.214175 -16.837142 -9.580820 -76.427195 -65.195796 121.140768 13.465625 15.270951 -19.527844 -10.060042 0.627880 -0.846934 3.443159 -13.198462 13.422769 41.505779 -35.716605 -104.886939 8.596933 9.017010 7.010274 4.193023 -20.277866 -3.232576 -34.658920 73.618968 -38.933566 5.441537 -14.369254 11.819213 0.019109 -0.048623 0.014815 -7.805687 -17.952890 5.164870 86.506854 82.013071 85.373202 0.872552 -21.794552 -17.945232 0.014615 0.091683 0.018978
-45.482001 57.865027 11.834411 179.089225 -51.074742 -3.676237 3.473681 22.514214 2.816279 1.767773 12.856608 1.441904 2.287669 16.083127 1.879175 1.776612 12.872775 1.442290 1.892924 13.782583 5.581270 1.358654 -10.203879 9.793664 2.167890 4.139196 1.129107 -3.327811 -16.794370 -9.590178 -76.402957 -65.387779 121.210208 13.413614 15.473360 -19.829157 -10.023548 0.653889 -0.809172 3.571607 -13.154603 13.502633 40.916629 -35.198068 -104.788111 8.723013 9.044478 6.821901 4.186524 -20.292804 -3.238650 -34.624486 73.609243 -38.895794 5.440594 -14.355313 11.817519 0.022623 -0.052023 0.015456 -7.824712 -17.976967 5.168982 86.492973 82.016269 85.338958 0.877672 -21.778166 -17.935340 0.007632 0.082980 0.016796
-45.485841 57.868374 11.840046 179.098938 -51.052314 -3.693220 3.480526 22.506979 2.829407 1.781925 12.881107 1.444671 2.279492 16.069163 1.881227 1.779560 12.877258 1.443705 1.965573 13.825648 5.625236 1.480837 -10.122437 9.848978 2.115656 4.194268 1.095648 -3.434754 -16.742409 -9.618428 -76.350924 -65.561992 121.279581 13.383362 15.662107 -20.027302 -10.000433 0.672185 -0.785602 3.679887 -13.087976 13.591002 40.348397 -34.687302 -104.660174 8.828029 8.969943 6.685484 4.174695 -20.310541 -3.237139 -34.580907 73.592457 -38.840846 5.441240 -14.334999 11.813386 0.028246 -0.056751 0.011392 -7.834636 -18.003653 5.185539 86.485888 82.023965 85.323454 0.877272 -21.765291 -17.926469 0.004511 0.075014 0.018279
-45.490382 57.873221 11.843577 179.107911 -51.041373 -3.707309 3.486448 22.509722 2.837330 1.785125 12.884758 1.446005 2.285724 16.075528 1.886137 1.795754 12.907801 1.441208 2.024828 13.850473 5.679343 1.601850 -10.024860 9.913241 2.070305 4.178452 1.088155 -3.543957 -16.646321 -9.680843 -76.234427 -65.720103 121.300684 13.362700 15.828804 -20.171386 -10.016503 0.634343 -0.761100 3.774266 -12.989273 13.686081 39.803440 -34.193975 -104.499333 8.924342 8.836814 6.587480 4.165651 -20.315572 -3.238928 -34.539548 73.585684 -38.794172 5.446149 -14.325534 11.829758 0.039878 -0.062264 -0.005561 -7.838044 -18.017673 5.195995 86.487760 82.028331 85.325877 0.870497 -21.754061 -17.925291 0.004580 0.063935 0.023411
-45.494873 57.877508 11.846192 179.115899 -51.028301 -3.721383 3.491651 22.507503 2.841802 1.788908 12.888366 1.448013 2.292271 16.083461 1.890951 1.797627 12.907963 1.441483 2.097338 13.913627 5.734486 1.721120 -9.910308 9.986433 2.012251 4.237705 1.066760 -3.602952 -16.593381 -9.741755 -76.066633 -65.866590 121.265741 13.340710 15.968321 -20.306330 -9.991451 0.670346 -0.739549 3.805105 -12.932343 13.764070 39.290307 -33.744451 -104.317521 9.036885 8.673850 6.522184 4.158653 -20.321515 -3.246827 -34.511638 73.574040 -38.741961 5.450773 -14.314296 11.822998 0.042371 -0.064269 -0.011530 -7.844384 -18.030445 5.207745 86.457751 82.030844 85.286057 0.868902 -21.745040 -17.914172 0.002817 0.056919 0.016964
-45.500197 57.882238 11.846606 179.126102 -51.023097 -3.731070 3.494400 22.512041 2.841058 1.791932 12.892035 1.449653 2.307466 16.107046 1.889342 1.791935 12.891999 1.449650 2.169167 13.986526 5.793923 1.838102 -9.777546 10.067687 1.957027 4.283188 1.052293 -3.619472 -16.528519 -9.824320 -75.890172 -66.003101 121.197620 13.302550 16.090936 -20.473047 -9.973271 0.689186 -0.722462 3.798026 -12.854100 13.841623 38.820412 -33.350767 -104.118827 9.171888 8.493212 6.477266 4.152712 -20.319411 -3.260412 -34.483696 73.571325 -38.697876 5.452208 -14.308645 11.824909 0.057417 -0.067617 -0.016029 -7.834282 -18.039115 5.215796 86.491361 82.043425 85.305709 0.870170 -21.742135 -17.882651 -0.012911 0.051427 0.007356
-45.503803 57.885671 11.846196 179.142339 -51.013639 -3.753494 3.496780 22.510934 2.850351 1.791808 12.893374 1.451826 2.310830 16.115077 1.889160 1.793574 12.896079 1.450680 2.239991 14.070339 5.856904 1.952460 -9.624358 10.155591 1.918590 4.300489 1.043713 -3.599224 -16.440600 -9.929595 -75.730808 -66.135539 121.113632 13.231342 16.209468 -20.693469 -9.963135 0.698213 -0.713618 3.747191 -12.759189 13.922062 38.416488 -33.014131 -103.910611 9.316664 8.309436 6.440846 4.136448 -20.320976 -3.272768 -34.417652 73.575710 -38.621334 5.465510 -14.308366 11.828319 0.030349 -0.069970 -0.024094 -7.797644 -18.055744 5.232285 86.486163 82.064489 85.337295 0.851653 -21.734893 -17.876357 -0.005314 0.037837 0.016728
